<mxfile host="app.diagrams.net" modified="2023-08-13T11:47:07.500Z" agent="Mozilla/5.0 (Windows NT 10.0; Win64; x64; rv:109.0) Gecko/20100101 Firefox/116.0" etag="bx4tXT6RqteyDDAGurBY" version="21.6.8" type="device">
  <diagram name="Page-1" id="c4acf3e9-155e-7222-9cf6-157b1a14988f">
    <mxGraphModel dx="1434" dy="754" grid="1" gridSize="10" guides="1" tooltips="1" connect="1" arrows="1" fold="1" page="1" pageScale="1" pageWidth="827" pageHeight="1169" background="none" math="0" shadow="0">
      <root>
        <mxCell id="0" />
        <mxCell id="1" parent="0" />
        <mxCell id="17acba5748e5396b-1" value="&lt;div&gt;FM.Domain&lt;/div&gt;" style="shape=umlFrame;whiteSpace=wrap;html=1;rounded=0;shadow=0;comic=0;labelBackgroundColor=none;strokeWidth=3;fontFamily=Verdana;fontSize=10;align=center;width=90;height=30;fillColor=none;" parent="1" vertex="1">
          <mxGeometry x="10" y="20" width="1810" height="2950" as="geometry" />
        </mxCell>
        <mxCell id="qIQWEk4-Nql_6bRXQTqS-10" value="Models" style="shape=umlFrame;whiteSpace=wrap;html=1;rounded=0;shadow=0;comic=0;labelBackgroundColor=none;strokeWidth=3;fontFamily=Verdana;fontSize=10;align=center;width=100;height=30;fillColor=#0050ef;fontColor=#ffffff;strokeColor=#001DBC;" parent="1" vertex="1">
          <mxGeometry x="20" y="840" width="1710" height="2110" as="geometry" />
        </mxCell>
        <mxCell id="qIQWEk4-Nql_6bRXQTqS-9" value="Abstractions" style="shape=umlFrame;whiteSpace=wrap;html=1;rounded=0;shadow=0;comic=0;labelBackgroundColor=none;strokeWidth=3;fontFamily=Verdana;fontSize=10;align=center;width=100;height=30;fillColor=#d5e8d4;strokeColor=#82b366;fillStyle=auto;" parent="1" vertex="1">
          <mxGeometry x="20" y="60" width="1710" height="760" as="geometry" />
        </mxCell>
        <mxCell id="qIQWEk4-Nql_6bRXQTqS-2" value="&lt;div&gt;Repository&lt;br&gt;&lt;/div&gt;" style="shape=umlFrame;whiteSpace=wrap;html=1;rounded=0;shadow=0;comic=0;labelBackgroundColor=none;strokeWidth=3;fontFamily=Verdana;fontSize=10;align=center;width=100;height=30;fillColor=#d80073;fontColor=#ffffff;strokeColor=#A50040;" parent="1" vertex="1">
          <mxGeometry x="30" y="100" width="1670" height="220" as="geometry" />
        </mxCell>
        <mxCell id="5d2195bd80daf111-18" value="&lt;p style=&quot;margin:0px;margin-top:4px;text-align:center;&quot;&gt;&lt;i&gt;&amp;lt;&amp;lt;Interface&amp;gt;&amp;gt;&lt;/i&gt;&lt;/p&gt;&lt;p style=&quot;margin:0px;margin-top:4px;text-align:center;&quot;&gt;&lt;b&gt;IClientRepository&lt;/b&gt;&lt;br&gt;&lt;/p&gt;&lt;hr size=&quot;1&quot;&gt;&lt;p style=&quot;margin:0px;margin-left:4px;&quot;&gt;&lt;br&gt;&lt;/p&gt;&lt;hr size=&quot;1&quot;&gt;&lt;p style=&quot;margin:0px;margin-left:4px;&quot;&gt;+ InsertClientAsync(ClientRepositoryModel): Task&amp;lt;int&amp;gt;&lt;/p&gt;&lt;p style=&quot;margin:0px;margin-left:4px;&quot;&gt;+ SelectAllClientsAsync(): Task&amp;lt;List&amp;lt;ClientRepositoryModel&amp;gt;&amp;gt;&lt;/p&gt;&lt;p style=&quot;margin:0px;margin-left:4px;&quot;&gt;+ CountClientsAsync(): Task&amp;lt;int&amp;gt;&lt;/p&gt;&lt;p style=&quot;margin:0px;margin-left:4px;&quot;&gt;+ SelectClientsByNameOrFirstnameOrCityAndByPage(string,string,string,int,int): Task&amp;lt;List&amp;lt;ClientRepositoryModel&amp;gt;&amp;gt;&lt;/p&gt;&lt;p style=&quot;margin:0px;margin-left:4px;&quot;&gt;+ SelectClientsExcept(int[]): Task&amp;lt;List&amp;lt;ClientRepositoryModel&amp;gt;&amp;gt;&lt;/p&gt;&lt;p style=&quot;margin:0px;margin-left:4px;&quot;&gt;&lt;/p&gt;" style="verticalAlign=top;align=left;overflow=fill;fontSize=12;fontFamily=Helvetica;html=1;rounded=0;shadow=0;comic=0;labelBackgroundColor=none;strokeWidth=1" parent="1" vertex="1">
          <mxGeometry x="40" y="140" width="570" height="160" as="geometry" />
        </mxCell>
        <mxCell id="qIQWEk4-Nql_6bRXQTqS-1" value="&lt;div&gt;Service&lt;/div&gt;" style="shape=umlFrame;whiteSpace=wrap;html=1;rounded=0;shadow=0;comic=0;labelBackgroundColor=none;strokeWidth=3;fontFamily=Verdana;fontSize=10;align=center;width=90;height=30;fillColor=#1ba1e2;fontColor=#ffffff;strokeColor=#006EAF;" parent="1" vertex="1">
          <mxGeometry x="30" y="340" width="1670" height="220" as="geometry" />
        </mxCell>
        <mxCell id="qIQWEk4-Nql_6bRXQTqS-3" value="&lt;div&gt;Web&lt;br&gt;&lt;/div&gt;" style="shape=umlFrame;whiteSpace=wrap;html=1;rounded=0;shadow=0;comic=0;labelBackgroundColor=none;strokeWidth=3;fontFamily=Verdana;fontSize=10;align=center;width=90;height=30;fillColor=#76608a;fontColor=#ffffff;strokeColor=#432D57;" parent="1" vertex="1">
          <mxGeometry x="30" y="580" width="1520" height="220" as="geometry" />
        </mxCell>
        <mxCell id="qIQWEk4-Nql_6bRXQTqS-5" value="&lt;p style=&quot;margin:0px;margin-top:4px;text-align:center;&quot;&gt;&lt;i&gt;&amp;lt;&amp;lt;Interface&amp;gt;&amp;gt;&lt;/i&gt;&lt;/p&gt;&lt;p style=&quot;margin:0px;margin-top:4px;text-align:center;&quot;&gt;&lt;b&gt;ICategoryRepository&lt;/b&gt;&lt;br&gt;&lt;/p&gt;&lt;hr size=&quot;1&quot;&gt;&lt;p style=&quot;margin:0px;margin-left:4px;&quot;&gt;&lt;br&gt;&lt;/p&gt;&lt;hr size=&quot;1&quot;&gt;&lt;p style=&quot;margin:0px;margin-left:4px;&quot;&gt;+ SelectCategoriesByTypeAsync(string): Task&amp;lt;List&amp;lt;CategoryRepositoryModel&amp;gt;&lt;br&gt;&lt;br&gt;&lt;/p&gt;" style="verticalAlign=top;align=left;overflow=fill;fontSize=12;fontFamily=Helvetica;html=1;rounded=0;shadow=0;comic=0;labelBackgroundColor=none;strokeWidth=1" parent="1" vertex="1">
          <mxGeometry x="1090" y="140" width="450" height="140" as="geometry" />
        </mxCell>
        <mxCell id="qIQWEk4-Nql_6bRXQTqS-6" value="&lt;p style=&quot;margin:0px;margin-top:4px;text-align:center;&quot;&gt;&lt;i&gt;&amp;lt;&amp;lt;Interface&amp;gt;&amp;gt;&lt;/i&gt;&lt;/p&gt;&lt;p style=&quot;margin:0px;margin-top:4px;text-align:center;&quot;&gt;&lt;b&gt;ICategoryService&lt;/b&gt;&lt;br&gt;&lt;/p&gt;&lt;hr size=&quot;1&quot;&gt;&lt;p style=&quot;margin:0px;margin-left:4px;&quot;&gt;&lt;br&gt;&lt;/p&gt;&lt;hr size=&quot;1&quot;&gt;&lt;p style=&quot;margin:0px;margin-left:4px;&quot;&gt;+ GetSelectListAsync(string): Task&amp;lt;SelectList&amp;gt;&lt;br&gt;&lt;br&gt;&lt;/p&gt;" style="verticalAlign=top;align=left;overflow=fill;fontSize=12;fontFamily=Helvetica;html=1;rounded=0;shadow=0;comic=0;labelBackgroundColor=none;strokeWidth=1" parent="1" vertex="1">
          <mxGeometry x="1090" y="380" width="450" height="140" as="geometry" />
        </mxCell>
        <mxCell id="qIQWEk4-Nql_6bRXQTqS-7" value="&lt;p style=&quot;margin:0px;margin-top:4px;text-align:center;&quot;&gt;&lt;i&gt;&amp;lt;&amp;lt;Interface&amp;gt;&amp;gt;&lt;/i&gt;&lt;/p&gt;&lt;p style=&quot;margin:0px;margin-top:4px;text-align:center;&quot;&gt;&lt;b&gt;IClientService&lt;/b&gt;&lt;br&gt;&lt;/p&gt;&lt;hr size=&quot;1&quot;&gt;&lt;p style=&quot;margin:0px;margin-left:4px;&quot;&gt;&lt;br&gt;&lt;/p&gt;&lt;hr size=&quot;1&quot;&gt;&lt;p style=&quot;margin:0px;margin-left:4px;&quot;&gt;+ GetRepositoryClientFromWebModelAsync(ClientWebModel): Task&amp;lt;ClientRepositoryModel&amp;gt;&lt;/p&gt;&lt;p style=&quot;margin:0px;margin-left:4px;&quot;&gt;+ PutClientAsync(ClientRepositoryModel): Task&amp;lt;bool&amp;gt;&lt;/p&gt;&lt;p style=&quot;margin:0px;margin-left:4px;&quot;&gt;+ GetAllClientsAsync(): Task&amp;lt;List&amp;lt;ClientRepositoryModel&amp;gt;&amp;gt;&lt;/p&gt;&lt;p style=&quot;margin:0px;margin-left:4px;&quot;&gt;+ GetClientIndexWebModel(ClientIndexWebModel): Task&amp;lt;ClientIndexWebModel&amp;gt;&lt;/p&gt;&lt;p style=&quot;margin:0px;margin-left:4px;&quot;&gt;&lt;/p&gt;" style="verticalAlign=top;align=left;overflow=fill;fontSize=12;fontFamily=Helvetica;html=1;rounded=0;shadow=0;comic=0;labelBackgroundColor=none;strokeWidth=1" parent="1" vertex="1">
          <mxGeometry x="40" y="380" width="520" height="140" as="geometry" />
        </mxCell>
        <mxCell id="qIQWEk4-Nql_6bRXQTqS-8" value="&lt;p style=&quot;margin:0px;margin-top:4px;text-align:center;&quot;&gt;&lt;i&gt;&amp;lt;&amp;lt;Interface&amp;gt;&amp;gt;&lt;/i&gt;&lt;/p&gt;&lt;p style=&quot;margin:0px;margin-top:4px;text-align:center;&quot;&gt;&lt;b&gt;ICityService&lt;/b&gt;&lt;br&gt;&lt;/p&gt;&lt;hr size=&quot;1&quot;&gt;&lt;p style=&quot;margin:0px;margin-left:4px;&quot;&gt;&lt;br&gt;&lt;/p&gt;&lt;hr size=&quot;1&quot;&gt;&amp;nbsp;+ GetMatchingCitiesFromFranceJsonDb(string): List&amp;lt;CityJsonRepositoryModel&amp;gt;" style="verticalAlign=top;align=left;overflow=fill;fontSize=12;fontFamily=Helvetica;html=1;rounded=0;shadow=0;comic=0;labelBackgroundColor=none;strokeWidth=1" parent="1" vertex="1">
          <mxGeometry x="620" y="380" width="460" height="140" as="geometry" />
        </mxCell>
        <mxCell id="qIQWEk4-Nql_6bRXQTqS-11" value="&lt;div&gt;Repository&lt;br&gt;&lt;/div&gt;" style="shape=umlFrame;whiteSpace=wrap;html=1;rounded=0;shadow=0;comic=0;labelBackgroundColor=none;strokeWidth=3;fontFamily=Verdana;fontSize=10;align=center;width=100;height=30;fillColor=#d80073;fontColor=#ffffff;strokeColor=#A50040;" parent="1" vertex="1">
          <mxGeometry x="30" y="880" width="1670" height="420" as="geometry" />
        </mxCell>
        <mxCell id="qIQWEk4-Nql_6bRXQTqS-12" value="&lt;p style=&quot;margin:0px;margin-top:4px;text-align:center;&quot;&gt;&lt;b&gt;ClientRepositoryModel&lt;/b&gt;&lt;br&gt;&lt;/p&gt;&lt;hr size=&quot;1&quot;&gt;&amp;nbsp;+ CId:int&lt;br&gt;&amp;nbsp;+ CFkMediaId:int?&lt;br&gt;&amp;nbsp;+ CFkCityId:int&lt;br&gt;&amp;nbsp;+ CFkBirthCityId:int?&lt;br&gt;&amp;nbsp;+ CName:string&lt;br&gt;&amp;nbsp;+ CFirstname:string&lt;br&gt;&amp;nbsp;+ CAddress:string?&lt;br&gt;&amp;nbsp;+ CEmail:string?&lt;br&gt;&amp;nbsp;+ CPhoneFixed:string?&lt;br&gt;&amp;nbsp;+ CPhoneCell:string?&lt;br&gt;&amp;nbsp;+ CIsPro:bool&lt;br&gt;&amp;nbsp;+ CLocationLong:decimal?&lt;br&gt;&amp;nbsp;+ CLocationLat:decimal?&lt;br&gt;&amp;nbsp;+ CDistance:decimal?&lt;br&gt;&amp;nbsp;+ CTravelTime:int?&lt;br&gt;&amp;nbsp;+ CUrssafUuid:string?&lt;br&gt;&amp;nbsp;+ CIsMan:bool?&lt;br&gt;&amp;nbsp;+ CBirthName:string?&lt;br&gt;&amp;nbsp;+ CBirthCountryCode:int?&lt;br&gt;&amp;nbsp;+ CBirthDate:DateOnly?&lt;br&gt;&amp;nbsp;+ CBic:string?&lt;br&gt;&amp;nbsp;+ CIban:string?&lt;br&gt;&amp;nbsp;+ CAccountHolder:string?" style="verticalAlign=top;align=left;overflow=fill;fontSize=12;fontFamily=Helvetica;html=1;rounded=0;shadow=0;comic=0;labelBackgroundColor=none;strokeWidth=1" parent="1" vertex="1">
          <mxGeometry x="40" y="920" width="430" height="370" as="geometry" />
        </mxCell>
        <mxCell id="qIQWEk4-Nql_6bRXQTqS-13" value="&lt;div&gt;Service&lt;/div&gt;" style="shape=umlFrame;whiteSpace=wrap;html=1;rounded=0;shadow=0;comic=0;labelBackgroundColor=none;strokeWidth=3;fontFamily=Verdana;fontSize=10;align=center;width=90;height=30;fillColor=#1ba1e2;fontColor=#ffffff;strokeColor=#006EAF;" parent="1" vertex="1">
          <mxGeometry x="30" y="1320" width="1670" height="430" as="geometry" />
        </mxCell>
        <mxCell id="qIQWEk4-Nql_6bRXQTqS-14" value="&lt;div&gt;Web&lt;br&gt;&lt;/div&gt;" style="shape=umlFrame;whiteSpace=wrap;html=1;rounded=0;shadow=0;comic=0;labelBackgroundColor=none;strokeWidth=3;fontFamily=Verdana;fontSize=10;align=center;width=90;height=30;fillColor=#76608a;fontColor=#ffffff;strokeColor=#432D57;" parent="1" vertex="1">
          <mxGeometry x="30" y="1770" width="1520" height="1150" as="geometry" />
        </mxCell>
        <mxCell id="qIQWEk4-Nql_6bRXQTqS-15" value="&lt;p style=&quot;margin:0px;margin-top:4px;text-align:center;&quot;&gt;&lt;b&gt;CityRepositoryModel&lt;/b&gt;&lt;br&gt;&lt;/p&gt;&lt;hr size=&quot;1&quot;&gt;&lt;div&gt;&amp;nbsp;+ CiId : int&lt;br&gt;&amp;nbsp;+ CiPostalCode: string&lt;/div&gt;&lt;div&gt;&amp;nbsp;+ CiName: string&lt;/div&gt;&lt;div&gt;&amp;nbsp;+ CiInseeCode: int?&lt;/div&gt;&lt;div&gt;&amp;nbsp;+ CiDepartCode: int?&lt;/div&gt;&lt;p style=&quot;margin:0px;margin-left:4px;&quot;&gt;&lt;/p&gt;&lt;p style=&quot;margin:0px;margin-left:4px;&quot;&gt;&lt;/p&gt;" style="verticalAlign=top;align=left;overflow=fill;fontSize=12;fontFamily=Helvetica;html=1;rounded=0;shadow=0;comic=0;labelBackgroundColor=none;strokeWidth=1" parent="1" vertex="1">
          <mxGeometry x="490" y="920" width="430" height="170" as="geometry" />
        </mxCell>
        <mxCell id="qIQWEk4-Nql_6bRXQTqS-16" value="&lt;p style=&quot;margin:0px;margin-top:4px;text-align:center;&quot;&gt;&lt;b&gt;CategoryRepositoryModel&lt;/b&gt;&lt;br&gt;&lt;/p&gt;&lt;hr size=&quot;1&quot;&gt;&lt;p style=&quot;margin:0px;margin-left:4px;&quot;&gt;&lt;br&gt;&lt;/p&gt;&lt;p style=&quot;margin:0px;margin-left:4px;&quot;&gt;&lt;br&gt;&lt;/p&gt;" style="verticalAlign=top;align=left;overflow=fill;fontSize=12;fontFamily=Helvetica;html=1;rounded=0;shadow=0;comic=0;labelBackgroundColor=none;strokeWidth=1" parent="1" vertex="1">
          <mxGeometry x="940" y="920" width="450" height="140" as="geometry" />
        </mxCell>
        <mxCell id="qIQWEk4-Nql_6bRXQTqS-17" value="&lt;p style=&quot;margin:0px;margin-top:4px;text-align:center;&quot;&gt;&lt;b&gt;CategoryServiceModel&lt;/b&gt;&lt;br&gt;&lt;/p&gt;&lt;hr size=&quot;1&quot;&gt;&lt;p style=&quot;margin:0px;margin-left:4px;&quot;&gt;&lt;br&gt;&lt;/p&gt;&lt;p style=&quot;margin:0px;margin-left:4px;&quot;&gt;&lt;br&gt;&lt;/p&gt;" style="verticalAlign=top;align=left;overflow=fill;fontSize=12;fontFamily=Helvetica;html=1;rounded=0;shadow=0;comic=0;labelBackgroundColor=none;strokeWidth=1" parent="1" vertex="1">
          <mxGeometry x="940" y="1360" width="450" height="140" as="geometry" />
        </mxCell>
        <mxCell id="qIQWEk4-Nql_6bRXQTqS-18" value="&lt;p style=&quot;margin:0px;margin-top:4px;text-align:center;&quot;&gt;&lt;b&gt;ClientCreateWebModel&lt;/b&gt;&lt;br&gt;&lt;/p&gt;&lt;hr size=&quot;1&quot;&gt;&amp;nbsp;+ CFkMediaId : int?&lt;br&gt;&amp;nbsp;+ CFkCityId : int&lt;br&gt;&amp;nbsp;+ CFkBirthCityId : int?&lt;br&gt;&amp;nbsp;+ CName : string&lt;br&gt;&amp;nbsp;+ CFirstname : string&lt;br&gt;&amp;nbsp;+ CAddress : string?&lt;br&gt;&amp;nbsp;+ CEmail : string?&lt;br&gt;&amp;nbsp;+ CPhoneFixed : string?&lt;br&gt;&amp;nbsp;+ CPhoneCell : string?&lt;br&gt;&amp;nbsp;+ CIsPro : bool&lt;br&gt;&amp;nbsp;+ CLocationLong : decimal?&lt;br&gt;&amp;nbsp;+ CLocationLat : decimal?&lt;br&gt;&amp;nbsp;+ CDistance : decimal?&lt;br&gt;&amp;nbsp;+ CTravelTime : int?&lt;br&gt;&amp;nbsp;+ CUrssafUuid : string?&lt;br&gt;&amp;nbsp;+ CIsMan : bool?&lt;br&gt;&amp;nbsp;+ CBirthName : string?&lt;br&gt;&amp;nbsp;+ CBirthDate : DateOnly?&lt;br&gt;&amp;nbsp;+ CBic : string?&lt;br&gt;&amp;nbsp;+ CIban : string?&lt;br&gt;&lt;div&gt;&amp;nbsp;+ CAccountHolder : string?&lt;/div&gt;&lt;div&gt;&lt;br&gt;&lt;/div&gt;&amp;nbsp;+ BirthCityInput : string?&lt;br&gt;&amp;nbsp;+ Medias : IEnumerable&amp;lt;SelectListItem&amp;gt;?&lt;br&gt;&lt;div&gt;&amp;nbsp;+ Town : string&lt;br&gt;&amp;nbsp;+ EnableUrssafPayment : bool&lt;br&gt;&amp;nbsp;+ Choice : int&lt;br&gt;&amp;nbsp;+ IsMan : bool&lt;br&gt;&lt;/div&gt;&lt;p style=&quot;margin:0px;margin-left:4px;&quot;&gt;&lt;/p&gt;" style="verticalAlign=top;align=left;overflow=fill;fontSize=12;fontFamily=Helvetica;html=1;rounded=0;shadow=0;comic=0;labelBackgroundColor=none;strokeWidth=1" parent="1" vertex="1">
          <mxGeometry x="40" y="1810" width="440" height="440" as="geometry" />
        </mxCell>
        <mxCell id="qIQWEk4-Nql_6bRXQTqS-19" value="&lt;p style=&quot;margin:0px;margin-top:4px;text-align:center;&quot;&gt;&lt;b&gt;CityServiceModel&lt;/b&gt;&lt;br&gt;&lt;/p&gt;&lt;hr size=&quot;1&quot;&gt;&lt;p style=&quot;margin:0px;margin-left:4px;&quot;&gt;&lt;br&gt;&lt;/p&gt;&lt;hr size=&quot;1&quot;&gt;" style="verticalAlign=top;align=left;overflow=fill;fontSize=12;fontFamily=Helvetica;html=1;rounded=0;shadow=0;comic=0;labelBackgroundColor=none;strokeWidth=1" parent="1" vertex="1">
          <mxGeometry x="490" y="1360" width="430" height="140" as="geometry" />
        </mxCell>
        <mxCell id="qIQWEk4-Nql_6bRXQTqS-20" value="&lt;p style=&quot;margin:0px;margin-top:4px;text-align:center;&quot;&gt;&lt;b&gt;CityJsonRepositoryModel&lt;/b&gt;&lt;br&gt;&lt;/p&gt;&lt;hr size=&quot;1&quot;&gt;&amp;nbsp;+ Nom : string?&lt;br&gt;&amp;nbsp;+ Code : string?&lt;br&gt;&amp;nbsp;+ CodeDepartement : string?&lt;br&gt;&amp;nbsp;+ CodesPostaux : List&amp;lt;string&amp;gt;?&lt;p style=&quot;margin:0px;margin-left:4px;&quot;&gt;&lt;/p&gt;&lt;p style=&quot;margin:0px;margin-left:4px;&quot;&gt;&lt;/p&gt;" style="verticalAlign=top;align=left;overflow=fill;fontSize=12;fontFamily=Helvetica;html=1;rounded=0;shadow=0;comic=0;labelBackgroundColor=none;strokeWidth=1" parent="1" vertex="1">
          <mxGeometry x="490" y="1110" width="430" height="170" as="geometry" />
        </mxCell>
        <mxCell id="6qtF_0vw5hCiVWaXBpFf-1" value="&lt;p style=&quot;margin:0px;margin-top:4px;text-align:center;&quot;&gt;&lt;i&gt;&amp;lt;&amp;lt;Interface&amp;gt;&amp;gt;&lt;/i&gt;&lt;/p&gt;&lt;p style=&quot;margin:0px;margin-top:4px;text-align:center;&quot;&gt;&lt;b&gt;IClientWeb&lt;/b&gt;&lt;br&gt;&lt;/p&gt;&lt;hr size=&quot;1&quot;&gt;&lt;p style=&quot;margin:0px;margin-left:4px;&quot;&gt;&lt;br&gt;&lt;/p&gt;&lt;hr size=&quot;1&quot;&gt;&lt;div&gt;&amp;nbsp;+ GetMatchingCities(string): IActionResult&lt;/div&gt;&lt;div&gt;&amp;nbsp;+ CreateAsync(): Task&amp;lt;IActionResult&amp;gt;&lt;/div&gt;&lt;div&gt;&amp;nbsp;+ CreateAsync(ClientWebModel): Task&amp;lt;IActionResult&amp;gt;&lt;/div&gt;&lt;div&gt;&lt;div&gt;&amp;nbsp;+ IndexAsync(ClientWebModel): Task&amp;lt;IActionResult&amp;gt;&lt;/div&gt;&lt;/div&gt;" style="verticalAlign=top;align=left;overflow=fill;fontSize=12;fontFamily=Helvetica;html=1;rounded=0;shadow=0;comic=0;labelBackgroundColor=none;strokeWidth=1" parent="1" vertex="1">
          <mxGeometry x="40" y="620" width="460" height="140" as="geometry" />
        </mxCell>
        <mxCell id="6uyaSKjuWU_ujleCWWm4-1" value="&lt;p style=&quot;margin:0px;margin-top:4px;text-align:center;&quot;&gt;&lt;b&gt;ClientIndexWebModel&lt;/b&gt;&lt;br&gt;&lt;/p&gt;&lt;hr size=&quot;1&quot;&gt;&amp;nbsp;+NameSearch: string?&lt;br&gt;&amp;nbsp;+FirstnameSearch: string?&lt;br&gt;&amp;nbsp;+CitySearch: int?&lt;br&gt;&amp;nbsp;+Cities: IEnumerable&amp;lt;SelectListItem&amp;gt;?&lt;br&gt;&amp;nbsp;+ClientsGPS: IQueryable&amp;lt;FClient&amp;gt;?&lt;br&gt;&amp;nbsp;+Clients: List&amp;lt;FClient&amp;gt;?&lt;br&gt;&amp;nbsp;+TotalClients: int&lt;br&gt;&amp;nbsp;+TotalPages: int&lt;br&gt;&amp;nbsp;+PageSize: int&lt;br&gt;&amp;nbsp;+Page: int&lt;br&gt;&lt;p style=&quot;margin:0px;margin-left:4px;&quot;&gt;&lt;/p&gt;" style="verticalAlign=top;align=left;overflow=fill;fontSize=12;fontFamily=Helvetica;html=1;rounded=0;shadow=0;comic=0;labelBackgroundColor=none;strokeWidth=1" vertex="1" parent="1">
          <mxGeometry x="40" y="2270" width="440" height="180" as="geometry" />
        </mxCell>
        <mxCell id="qIQWEk4-Nql_6bRXQTqS-4" value="&lt;p style=&quot;margin:0px;margin-top:4px;text-align:center;&quot;&gt;&lt;i&gt;&amp;lt;&amp;lt;Interface&amp;gt;&amp;gt;&lt;/i&gt;&lt;/p&gt;&lt;p style=&quot;margin:0px;margin-top:4px;text-align:center;&quot;&gt;&lt;b&gt;ICityRepository&lt;/b&gt;&lt;br&gt;&lt;/p&gt;&lt;hr size=&quot;1&quot;&gt;&lt;p style=&quot;margin:0px;margin-left:4px;&quot;&gt;&lt;br&gt;&lt;/p&gt;&lt;hr size=&quot;1&quot;&gt;&lt;p style=&quot;margin:0px;margin-left:4px;&quot;&gt;+ InsertCityAsync(CityRepositoryModel): Task&amp;lt;int&amp;gt;&lt;/p&gt;&lt;p style=&quot;margin:0px;margin-left:4px;&quot;&gt;+ SelectCityByCodeAsync(int): Task&amp;lt;CityRepositoryModel?&amp;gt;&lt;/p&gt;&lt;p style=&quot;margin:0px;margin-left:4px;&quot;&gt;+ UpdateCityAsync(CityRepositoryModel): Task&amp;lt;int&amp;gt;&lt;/p&gt;&lt;p style=&quot;margin:0px;margin-left:4px;&quot;&gt;+ SelectCityByNameFromFranceJsonDb(string): CityJsonRepositoryModel?&lt;/p&gt;&lt;p style=&quot;margin:0px;margin-left:4px;&quot;&gt;&lt;/p&gt;&lt;p style=&quot;margin:0px;margin-left:4px;&quot;&gt;&lt;/p&gt;&lt;p style=&quot;margin:0px;margin-left:4px;&quot;&gt;+ SelectMatchingCitiesFromFranceJsonDb(string): List&amp;lt;CityJsonRepositoryModel&amp;gt;&lt;br&gt;&lt;/p&gt;" style="verticalAlign=top;align=left;overflow=fill;fontSize=12;fontFamily=Helvetica;html=1;rounded=0;shadow=0;comic=0;labelBackgroundColor=none;strokeWidth=1" parent="1" vertex="1">
          <mxGeometry x="620" y="140" width="460" height="170" as="geometry" />
        </mxCell>
      </root>
    </mxGraphModel>
  </diagram>
</mxfile>
